<svg width="46" height="63" viewBox="0 0 46 63" fill="none" xmlns="http://www.w3.org/2000/svg">
<path d="M17.892 36.136C17.724 35.968 17.412 35.74 16.956 35.452C16.524 35.164 15.984 34.888 15.336 34.624C14.712 34.36 14.028 34.132 13.284 33.94C12.54 33.724 11.784 33.616 11.016 33.616C9.672 33.616 8.652 33.868 7.956 34.372C7.284 34.876 6.948 35.584 6.948 36.496C6.948 37.192 7.164 37.744 7.596 38.152C8.028 38.56 8.676 38.908 9.54 39.196C10.404 39.484 11.484 39.796 12.78 40.132C14.46 40.54 15.912 41.044 17.136 41.644C18.384 42.22 19.332 42.988 19.98 43.948C20.652 44.884 20.988 46.132 20.988 47.692C20.988 49.06 20.736 50.236 20.232 51.22C19.728 52.18 19.032 52.96 18.144 53.56C17.256 54.16 16.248 54.604 15.12 54.892C13.992 55.156 12.792 55.288 11.52 55.288C10.248 55.288 8.976 55.156 7.704 54.892C6.432 54.628 5.208 54.256 4.032 53.776C2.856 53.272 1.776 52.672 0.792 51.976L2.988 47.692C3.204 47.908 3.588 48.196 4.14 48.556C4.692 48.892 5.364 49.24 6.156 49.6C6.948 49.936 7.812 50.224 8.748 50.464C9.684 50.704 10.632 50.824 11.592 50.824C12.936 50.824 13.956 50.596 14.652 50.14C15.348 49.684 15.696 49.036 15.696 48.196C15.696 47.428 15.42 46.828 14.868 46.396C14.316 45.964 13.548 45.592 12.564 45.28C11.58 44.944 10.416 44.584 9.072 44.2C7.464 43.744 6.12 43.24 5.04 42.688C3.96 42.112 3.156 41.392 2.628 40.528C2.1 39.664 1.836 38.584 1.836 37.288C1.836 35.536 2.244 34.072 3.06 32.896C3.9 31.696 5.028 30.796 6.444 30.196C7.86 29.572 9.432 29.26 11.16 29.26C12.36 29.26 13.488 29.392 14.544 29.656C15.624 29.92 16.632 30.268 17.568 30.7C18.504 31.132 19.344 31.6 20.088 32.104L17.892 36.136Z" fill="white"/>
<path d="M24.664 34V8.44H35.968C37.144 8.44 38.224 8.68 39.208 9.16C40.216 9.64 41.08 10.288 41.8 11.104C42.544 11.92 43.108 12.832 43.492 13.84C43.9 14.848 44.104 15.88 44.104 16.936C44.104 18.016 43.912 19.06 43.528 20.068C43.168 21.052 42.64 21.916 41.944 22.66C41.248 23.404 40.432 23.98 39.496 24.388L45.328 34H39.856L34.6 25.432H29.632V34H24.664ZM29.632 21.076H35.86C36.484 21.076 37.036 20.896 37.516 20.536C37.996 20.152 38.38 19.648 38.668 19.024C38.956 18.4 39.1 17.704 39.1 16.936C39.1 16.12 38.932 15.412 38.596 14.812C38.26 14.188 37.828 13.696 37.3 13.336C36.796 12.976 36.244 12.796 35.644 12.796H29.632V21.076Z" fill="white"/>
</svg>
